# AST/ASF file generated using VICON BodyLanguage
# -----------------------------------------------
:version 1.10
:name VICON
:units
  mass 1.0
  length 0.45
  angle deg
:documentation
   .ast/.asf automatically generated from VICON data using
   VICON BodyBuilder and BodyLanguage model FoxedUp or BRILLIANT.MOD
:root
   order TX TY TZ RX RY RZ
   axis XYZ
   position 0 0 0  
   orientation 0 0 0 
:bonedata
  begin
     id 1 
     name lhipjoint
     direction 0.561001 -0.76473 0.316963 
     length 2.4722 
     axis 0 0 0  XYZ
  end
  begin
     id 2 
     name lfemur
     direction 0.34202 -0.939693 0  
     length 7.59403  
     axis 0 0 20  XYZ
    dof rx ry rz
    limits (-160.0 20.0)
           (-70.0 70.0)
           (-60.0 70.0)
  end
  begin
     id 3 
     name ltibia
     direction 0.34202 -0.939693 0   
     length 7.89655   
     axis 0 0 20   XYZ
    dof rx
    limits (-10.0 170.0)
  end
  begin
     id 4 
     name lfoot
     direction 0.061296 -0.168409 0.98381   
     length 2.73287   
     axis -90 7.62852e-016 20   XYZ
    dof rx rz
    limits (-45.0 90.0)
           (-70.0 20.0)
  end
  begin
     id 5 
     name ltoes
     direction 1.53547e-011 -4.21984e-011 1   
     length 1.37057   
     axis -90 7.62852e-016 20   XYZ
    dof rx
    limits (-90.0 20.0)
  end
  begin
     id 6 
     name rhipjoint
     direction -0.559611 -0.765599 0.317323   
     length 2.46939  
     axis 0 0 0  XYZ 
  end
  begin
     id 7 
     name rfemur
     direction -0.34202 -0.939693 0   
     length 7.53712   
     axis 0 0 -20   XYZ
    dof rx ry rz
    limits (-160.0 20.0)
           (-70.0 70.0)
           (-70.0 60.0)
  end
  begin
     id 8 
     name rtibia
     direction -0.34202 -0.939693 0   
     length 8.12549   
     axis 0 0 -20   XYZ
    dof rx
    limits (-10.0 170.0)
 end
 begin
     id 9 
     name rfoot
     direction -0.066984 -0.184037 0.980634   
     length 2.67541  
     axis -90 -7.62852e-016 -20   XYZ
    dof rx rz
    limits (-45.0 90.0)
           (-20.0 70.0)
  end
  begin
     id 10 
     name rtoes
     direction -1.53549e-011 -4.21786e-011 1   
     length 1.34085   
     axis -90 -7.62852e-016 -20   XYZ
    dof rx
    limits (-90.0 20.0)
  end
  begin
     id 11 
     name lowerback
     direction -0.0522728 0.992594 -0.109658   
     length 2.05633   
     axis 0 0 0   XYZ
    dof rx ry rz
    limits (-20.0 45.0)
           (-30.0 30.0)
           (-30.0 30.0)
  end
  begin
     id 12 
     name upperback
     direction 0.00589338 0.999977 0.00335704   
     length 2.05845   
     axis 0 0 0   XYZ
    dof rx ry rz
    limits (-20.0 45.0)
           (-30.0 30.0)
           (-30.0 30.0)
  end
  begin
     id 13 
     name thorax
     direction 0.0292928 0.998059 0.0549487   
     length 2.09281   
     axis 0 0 0   XYZ
    dof rx ry rz
    limits (-20.0 45.0)
           (-30.0 30.0)
           (-30.0 30.0)
  end
  begin
     id 14 
     name lowerneck
     direction 0.0356368 0.980775 0.191858   
     length 1.84767   
     axis 0 0 0   XYZ
    dof rx ry rz
    limits (-20.0 45.0)
           (-30.0 30.0)
           (-30.0 30.0)
  end
  begin
     id 15 
     name upperneck
     direction -0.0227605 0.98931 -0.14404   
     length 1.89582   
     axis 0 0 0   XYZ
    dof rx ry rz
    limits (-20.0 45.0)
           (-30.0 30.0)
           (-30.0 30.0)
  end
  begin
     id 16
     name head
     direction -0.00932985 0.997511 -0.0698904  
     length 1.90213  
     axis 0 0 0   XYZ
    dof rx ry rz
    limits (-20.0 45.0)
           (-30.0 30.0)
           (-30.0 30.0)
  end
  begin
     id 17 
     name lclavicle
     direction 0.873442 0.479511 0.0846686  
     length 3.41193  
     axis 0 0 0   XYZ
    dof ry rz
    limits (-20.0 10.0)
           (0.0 20.0)
  end
  begin
     id 18 
     name lhumerus
     direction 1 -4.4897e-011 -5.62117e-018   
     length 5.59864   
     axis 180 -30 -90   XYZ
    dof rx ry rz
    limits (-60.0 90.0)
           (-90.0 90.0)
           (-90.0 90.0)
  end
  begin
     id 19
     name lradius
     direction 1 -4.48966e-011 -6.26295e-027   
     length 3.59542   
     axis 180 -30 -90   XYZ
    dof rx
    limits (-10.0 170.0)
  end
  begin
     id 20
     name lwrist
     direction 1 -4.48947e-011 -1.74096e-026   
     length 1.79771   
     axis 1.04567e-014 90 90   XYZ
    dof ry
    limits (-180.0 0.0)
 end
  begin
     id 21 
     name lhand
     direction 1 -4.49085e-011 -3.48469e-026   
     length 0.572014   
     axis 2.22196e-014 90 90   XYZ
    dof rx rz
    limits (-90.0 90.0)
           (-45.0 45.0)
  end
  begin
     id 22 
     name lfingers
     direction 1 -4.48884e-011 -6.96135e-026   
     length 0.461173   
     axis 4.44383e-014 90 90   XYZ
    dof rx
    limits (0.0 90.0)
  end
  begin
     id 23
     name lthumb
     direction 0.707107 -6.34976e-011 0.707107   
     length 0.662154   
     axis -90 45 -5.4397e-014   XYZ
    dof rx rz
    limits (-45.0 45.0)
           (-45.0 45.0)
  end
  begin
     id 24 
     name rclavicle
     direction -0.890242 0.443271 0.104786   
     length 3.46753  
     axis 0 0 0   XYZ 
    dof ry rz
    limits (-10.0 20.0)
           (-20.0 0.0)
  end
  begin
     id 25 
     name rhumerus
     direction -1 -4.48963e-011 -5.41723e-018  
     length 5.8094   
     axis 180 30 90   XYZ
    dof rx ry rz
    limits (-90.0 60.0)
           (-90.0 90.0)
           (-90.0 90.0)
  end
  begin
     id 26 
     name rradius
     direction -1 -4.48958e-011 -6.51059e-027   
     length 3.66953   
     axis 180 30 90   XYZ
    dof rx
    limits (-10.0 170.0)
  end
  begin
     id 27 
     name rwrist
     direction -1 -4.48975e-011 -1.74124e-026   
     length 1.83476   
     axis 1.04567e-014 -90 -90   XYZ
    dof ry
    limits (-180.0 0.0)
  end
  begin
     id 28
     name rhand
     direction -1 -4.49013e-011 -3.48326e-026   
     length 0.57843   
     axis 2.22196e-014 -90 -90   XYZ
    dof rx rz
    limits (-90.0 90.0)
           (-45.0 45.0)
  end
  begin
     id 29
     name rfingers
     direction -1 -4.49023e-011 -6.9669e-026   
     length 0.466345   
     axis 4.44383e-014 -90 -90   XYZ
    dof rx
    limits (0.0 90.0)
  end
  begin
     id 30
     name rthumb
     direction -0.707107 -6.34926e-011 0.707107   
     length 0.669581   
     axis -90 -45 5.4397e-014   XYZ
    dof rx rz
    limits (-45.0 45.0)
           (-45.0 45.0)
  end
:hierarchy
  begin
    root lhipjoint rhipjoint lowerback
    lhipjoint lfemur
    lfemur ltibia
    ltibia lfoot
    lfoot ltoes
    rhipjoint rfemur
    rfemur rtibia
    rtibia rfoot
    rfoot rtoes
    lowerback upperback
    upperback thorax
    thorax lowerneck lclavicle rclavicle
    lowerneck upperneck
    upperneck head
    lclavicle lhumerus
    lhumerus lradius
    lradius lwrist
    lwrist lhand lthumb
    lhand lfingers
    rclavicle rhumerus
    rhumerus rradius
    rradius rwrist
    rwrist rhand rthumb
    rhand rfingers
  end

#!OML:ASF H:\SkateBoarding\Project 1\Capture day 1\Session 1\Skater.ASF
:FULLY-SPECIFIED
:DEGREES
176
root 6.58796 17.4911 8.67343 178.067 5.24582 177.244
lowerback 13.902 1.19073 -6.56446
upperback 1.34721 0.74924 -0.384805
thorax -6.44671 0.624567 3.14972
lowerneck -26.0742 3.00691 5.09482
upperneck 15.7239 2.77657 -2.46639
head 9.30305 1.32155 -1.25874
rclavicle -3.19298e-015 -1.83876e-014
rhumerus 30.6384 5.1712 -59.499
rradius 82.3403
rwrist -9.97044
rhand 15.6502 -41.137
rfingers 7.12502
rthumb 40.4633 -66.2216
lclavicle -3.19298e-015 -1.83876e-014
lhumerus 30.2069 0.64847 59.9341
lradius 81.5781
lwrist 9.14834
lhand 11.8457 49.3158
lfingers 7.12502
lthumb 36.8747 75.4125
rfemur -23.4702 -7.48204 9.13899
rtibia 49.7405
rfoot -15.6194 15.6352
rtoes -11.2946
lfemur -20.9378 8.73113 -13.2944
ltibia 46.4676
lfoot -18.7174 -10.0817
ltoes -11.2551
177
root 6.58926 17.4927 8.67235 178.081 5.27889 177.311
lowerback 13.9032 1.19729 -6.51863
upperback 1.34796 0.765262 -0.366196
thorax -6.44797 0.631033 3.14058
lowerneck -26.0947 2.99455 5.09186
upperneck 15.7416 2.75679 -2.4521
head 9.31165 1.31383 -1.25618
rclavicle -2.43511e-015 -1.04362e-014
rhumerus 30.6313 5.16353 -59.4921
rradius 82.3517
rwrist -9.9938
rhand 15.6176 -41.1027
rfingers 7.12502
rthumb 40.4327 -66.1967
lclavicle -2.43511e-015 -1.04362e-014
lhumerus 30.2153 0.675908 59.9415
lradius 81.5768
lwrist 9.11646
lhand 11.845 49.261
lfingers 7.12502
lthumb 36.8741 75.3579
rfemur -23.4836 -7.4256 9.228
rtibia 49.7354
rfoot -15.6562 15.5996
rtoes -11.3282
lfemur -20.9434 8.73669 -13.2146
ltibia 46.4728
lfoot -18.7443 -10.0382
ltoes -11.3058
178
root 6.5903 17.4932 8.67115 178.078 5.29332 177.293
lowerback 13.9308 1.20767 -6.55725
upperback 1.33818 0.770114 -0.37557
thorax -6.47466 0.635423 3.15109
lowerneck -26.1035 2.9826 5.09074
upperneck 15.762 2.73611 -2.43124
head 9.31915 1.30669 -1.25183
rclavicle -1.13928e-014 4.87022e-015
rhumerus 30.5923 5.15481 -59.4818
rradius 82.3747
rwrist -10.0284
rhand 15.6227 -41.1071
rfingers 7.12502
rthumb 40.4375 -66.1996
lclavicle -1.13928e-014 4.87022e-015
lhumerus 30.2032 0.680844 59.9404
lradius 81.5789
lwrist 9.07771
lhand 11.7928 49.2066
lfingers 7.12502
lthumb 36.8247 75.3162
rfemur -23.4843 -7.4179 9.21438
rtibia 49.7338
rfoot -15.6736 15.5766
rtoes -11.3826
lfemur -20.9325 8.72516 -13.2321
ltibia 46.4751
lfoot -18.7628 -10.0261
ltoes -11.3064
179
root 6.59055 17.4925 8.67021 178.082 5.31701 177.307
lowerback 13.9286 1.21376 -6.55429
upperback 1.29345 0.773275 -0.374893
thorax -6.52194 0.637734 3.14929
lowerneck -25.916 2.97359 5.12724
upperneck 15.7228 2.72488 -2.45133
head 9.27463 1.30233 -1.26767
rclavicle 1.19768e-014 -4.37326e-015
rhumerus 30.4861 5.20386 -59.4811
rradius 82.3912
rwrist -10.0796
rhand 15.6086 -41.1324
rfingers 7.12502
rthumb 40.4242 -66.2291
lclavicle 1.19768e-014 -4.37326e-015
lhumerus 30.1177 0.649924 59.9287
lradius 81.5798
lwrist 9.0329
lhand 11.7459 49.1528
lfingers 7.12502
lthumb 36.7803 75.2737
rfemur -23.4956 -7.4136 9.23496
rtibia 49.7318
rfoot -15.6423 15.5759
rtoes -11.3503
lfemur -20.9318 8.72253 -13.2119
ltibia 46.4862
lfoot -18.7842 -10.0345
ltoes -11.234
180
root 6.5901 17.4952 8.66907 178.099 5.32084 177.313
lowerback 13.95 1.21811 -6.53539
upperback 1.27831 0.778234 -0.38758
thorax -6.55022 0.640393 3.12378
lowerneck -25.9227 2.95089 5.10794
upperneck 15.7359 2.69364 -2.41854
head 9.27833 1.29054 -1.25784
rclavicle 2.04251e-014 -1.43125e-014
rhumerus 30.4471 5.18575 -59.4714
rradius 82.4022
rwrist -10.1196
rhand 15.6121 -41.1527
rfingers 7.12502
rthumb 40.4275 -66.2483
lclavicle 2.04251e-014 -1.43125e-014
lhumerus 30.1276 0.651238 59.9254
lradius 81.5651
lwrist 8.99154
lhand 11.6672 49.035
lfingers 7.12502
lthumb 36.7058 75.175
rfemur -23.5084 -7.41512 9.24478
rtibia 49.7313
rfoot -15.6638 15.5528
rtoes -11.4019
lfemur -20.9346 8.67883 -13.196
ltibia 46.4955
lfoot -18.809 -10.0347
ltoes -11.1721
181
root 6.59106 17.496 8.66801 178.115 5.33561 177.363
lowerback 13.9451 1.21741 -6.5057
upperback 1.28137 0.782862 -0.372419
thorax -6.5445 0.641557 3.12238
lowerneck -25.9361 2.95211 5.0781
upperneck 15.7478 2.69799 -2.38391
head 9.28396 1.29479 -1.24017
rclavicle -6.01324e-015 -4.37326e-015
rhumerus 30.4411 5.1881 -59.4488
rradius 82.3998
rwrist -10.1594
rhand 15.5582 -41.1378
rfingers 7.12502
rthumb 40.3768 -66.249
lclavicle -6.01324e-015 -4.37326e-015
lhumerus 30.1443 0.677425 59.9222
lradius 81.5751
lwrist 8.90787
lhand 11.6871 49.0868
lfingers 7.12502
lthumb 36.7247 75.222
rfemur -23.5242 -7.44667 9.30909
rtibia 49.7301
rfoot -15.6567 15.5424
rtoes -11.4886
lfemur -20.9436 8.68327 -13.1358
ltibia 46.5083
lfoot -18.8157 -10.0444
ltoes -11.1607
182
root 6.59177 17.4957 8.66704 178.11 5.35081 177.334
lowerback 13.9424 1.22243 -6.5503
upperback 1.29049 0.783751 -0.384496
thorax -6.53371 0.643111 3.13456
lowerneck -25.9271 2.95816 5.09703
upperneck 15.7409 2.70044 -2.38666
head 9.28046 1.29685 -1.24382
rclavicle 2.02015e-014 5.76476e-015
rhumerus 30.4367 5.18591 -59.4411
rradius 82.3944
rwrist -10.1912
rhand 15.5313 -41.1569
rfingers 7.12502
rthumb 40.3515 -66.2759
lclavicle 2.02015e-014 5.76476e-015
lhumerus 30.1564 0.706016 59.9112
lradius 81.59
lwrist 8.84257
lhand 11.7242 49.0671
lfingers 7.12502
lthumb 36.7598 75.1933
rfemur -23.528 -7.4427 9.28432
rtibia 49.7391
rfoot -15.6873 15.5161
rtoes -11.6029
lfemur -20.9369 8.67204 -13.1647
ltibia 46.5127
lfoot -18.8435 -10.022
ltoes -11.1996
